{"title":"Maximum Risk (1996) 720p BRRip HEVC x265 [Dual-Audio][English 2.","uid":12008910,"size":1039083865,"categoryP":"video","categoryS":"movies","magnet":"?xt=urn:btih:7d1751d0180e427ce7d055eaf967e4694c0e5f27&amp;dn=Maximum+Risk+%281996%29+720p+BRRip+HEVC+x265+%5BDual-Audio%5D%5BEnglish+2.&amp;tr=udp%3A%2F%2Ftracker.openbittorrent.com%3A80&amp;tr=udp%3A%2F%2Fopen.demonii.com%3A1337&amp;tr=udp%3A%2F%2Ftracker.coppersurfer.tk%3A6969&amp;tr=udp%3A%2F%2Fexodus.desync.com%3A6969","seeders":1,"leechers":1,"uploader":"praneet_gupta777","files":3,"time":1434048573,"description":"[center]\n[b][size=7]Maximum Risk (1996) 720p BRRip HEVC x265 [Dual-Audio][English 2.0+Hindi 2.0] Esubs [PKG][/size][/b]\n\n\n\n\n\n[img]http://s20.postimg.org/hjfloyid9/Maximum_Risk_1996_Front_Cover_48291.jpg[/img]\n\n\n[img]http://s20.postimg.org/7kun2h8xp/Untitled.png[/img]\n\n\n\n\n[img]http://img9.uploadhouse.com/fileuploads/15981/15981250a2a3770f9f004bcdf00afac92833ebdb.png[/img]\n\n\n[quote]\n\n\nGeneral\nUnique ID                   : 247962423481926832961843686237791361759 (0xBA8BD35D94797DBB8045E3B4B5D49ADF)\nComplete name               : G:Maximum Risk (1996) 720p BRRip HEVC x265 [Dual-Audio][English 2.0+Hindi 2.0] Esubs [PKG]Maximum Risk (1996) 720p BRRip HEVC x265 [Dual-Audio][English 2.0+Hindi 2.0] Esubs [PKG].mkv\nFormat                      : Matroska\nFormat version              : Version 4 / Version 2\nFile size                   : 987 MiB\nDuration                    : 1h 40mn\nOverall bit rate            : 1 372 Kbps\nMovie name                  : Maximum Risk (1996) BDRip 720p [Hindi-Eng DD 2.1Ch] Org ~ PyZ [HKRG]\nEncoded date                : UTC 2015-06-10 16:35:10\nWriting application         : mkvmerge v7.7.0 ('Six Voices') 64bit built on Feb 28 2015 23:39:33\nWriting library             : libebml v1.3.1 + libmatroska v1.4.2\nDURATION                    : 01:40:35.072000000\nNUMBER_OF_FRAMES            : 188596\nNUMBER_OF_BYTES             : 96561152\n\nVideo\nID                          : 1\nFormat                      : HEVC\nFormat/Info                 : High Efficiency Video Coding\nCodec ID                    : V_MPEGH/ISO/HEVC\nDuration                    : 1h 40mn\nBit rate                    : 1 089 Kbps\nWidth                       : 1 280 pixels\nHeight                      : 536 pixels\nDisplay aspect ratio        : 2.40:1\nFrame rate mode             : Constant\nFrame rate                  : 23.976 fps\nBits/(Pixel*Frame)          : 0.066\nStream size                 : 783 MiB (79%)\nDefault                     : Yes\nForced                      : No\n\nAudio #1\nID                          : 2\nFormat                      : AC-3\nFormat/Info                 : Audio Coding 3\nMode extension              : CM (complete main)\nFormat settings, Endianness : Big\nCodec ID                    : A_AC3\nDuration                    : 1h 40mn\nBit rate mode               : Constant\nBit rate                    : 128 Kbps\nChannel(s)                  : 2 channels\nChannel positions           : Front: L R\nSampling rate               : 48.0 KHz\nBit depth                   : 16 bits\nCompression mode            : Lossy\nStream size                 : 92.1 MiB (9%)\nLanguage                    : Hindi\nDefault                     : Yes\nForced                      : No\n\nAudio #2\nID                          : 3\nFormat                      : AC-3\nFormat/Info                 : Audio Coding 3\nMode extension              : CM (complete main)\nFormat settings, Endianness : Big\nCodec ID                    : A_AC3\nDuration                    : 1h 40mn\nBit rate mode               : Constant\nBit rate                    : 128 Kbps\nChannel(s)                  : 2 channels\nChannel positions           : Front: L R\nSampling rate               : 48.0 KHz\nBit depth                   : 16 bits\nCompression mode            : Lossy\nStream size                 : 92.1 MiB (9%)\nLanguage                    : English\nDefault                     : No\nForced                      : No\n\nText\nID                          : 4\nFormat                      : PGS\nMuxing mode                 : zlib\nCodec ID                    : S_HDMV/PGS\nCodec ID/Info               : The same subtitle format used on BDs/HD-DVDs\nTitle                       : SUB_PGS\nLanguage                    : English\nDefault                     : Yes\nForced                      : No\n\n\n[color=navy][size=6][b]SAMPLE WITHIN TORRENT[/b][/size][/color]\n\n\n\n\n\n[img]http://icons.iconarchive.com/icons/tribalmarkings/colorflow/256/screenshots-icon.png[/img]\n\n\n\n[img]http://extraimago.com/images/2015/06/11/vlcsnap-2015-06-11-14h09m30s214.png[/img]\n\n[img]http://extraimago.com/images/2015/06/11/vlcsnap-2015-06-11-14h10m41s171.png[/img]\n\n[img]http://extraimago.com/images/2015/06/11/vlcsnap-2015-06-11-14h10m23s252.png[/img]\n\n[img]http://extraimago.com/images/2015/06/11/vlcsnap-2015-06-11-14h11m57s168.png[/img]\n\n[img]http://extraimago.com/images/2015/06/11/vlcsnap-2015-06-11-14h12m48s155.png[/img]\n\n[img]http://extraimago.com/images/2015/06/11/vlcsnap-2015-06-11-14h14m13s236.png[/img]\n\n\n[img]http://s20.postimg.org/u89w8mohp/Maximum_Risk_1996_720p_BRRip_HEVC_x265_Dual_A.jpg[/img]\n\n[b]Use a reputed media player that can play H.265 (HEVC : High Efficiency Video Coding) Video support.\nMedia Player Classic - Home Cinema and MPC-BE are recommended!.. VLC is OKay, but MPC variants are preferred.\nVLC and players like latest GOM, KMP/PotP with LAV can play HEVC.\n\nAnd also use latest K-Lite Codec Pack.\n\nIn Mobile, Android, Tabs, use a media player like VLC Player, MX Player... that can play H.265 :]\nFor more info, read the How_to_Play_ file inside the torrent.\n\n\nBe aware that all HEVC rips will not play on any stand-alone device. You can only watch this on a computer or on devices which have HEVC support.\nBe sure that you have the latest versions of VLC or Media Player Classic or SMPlayer. Earlier versions may not work[/b]\n\n\n\n[/center]","torrent":{"xt":"urn:btih:7d1751d0180e427ce7d055eaf967e4694c0e5f27","amp;dn":"Maximum+Risk+%281996%29+720p+BRRip+HEVC+x265+%5BDual-Audio%5D%5BEnglish+2.","amp;tr":["udp%3A%2F%2Ftracker.openbittorrent.com%3A80","udp%3A%2F%2Fopen.demonii.com%3A1337","udp%3A%2F%2Ftracker.coppersurfer.tk%3A6969","udp%3A%2F%2Fexodus.desync.com%3A6969"],"infoHash":"7d1751d0180e427ce7d055eaf967e4694c0e5f27","infoHashBuffer":{"type":"Buffer","data":[125,23,81,208,24,14,66,124,231,208,85,234,249,103,228,105,76,14,95,39]},"announce":[],"urlList":[]}}